<svg xmlns="http://www.w3.org/2000/svg" version="1.1" xmlns:xlink="http://www.w3.org/1999/xlink" xmlns:svgjs="http://svgjs.dev/svgjs" viewBox="0 0 800 800" opacity="0.59" width="800" height="800"><g stroke-width="1.25" stroke="hsla(90, 41%, 76%, 1.00)" fill="none"><rect width="200" height="160" x="0" y="0" opacity="0.15"></rect><circle r="5.526315789473684" cx="0" cy="0" fill="hsla(90, 41%, 76%, 1.00)" stroke="none"></circle><rect width="200" height="160" x="200" y="0" opacity="0.15"></rect><circle r="5.526315789473684" cx="200" cy="0" fill="hsla(90, 41%, 76%, 1.00)" stroke="none"></circle><rect width="200" height="160" x="400" y="0" opacity="0.15"></rect><circle r="5.526315789473684" cx="400" cy="0" fill="hsla(90, 41%, 76%, 1.00)" stroke="none"></circle><rect width="200" height="160" x="600" y="0" opacity="0.15"></rect><circle r="5.526315789473684" cx="600" cy="0" fill="hsla(90, 41%, 76%, 1.00)" stroke="none"></circle><rect width="200" height="160" x="800" y="0" opacity="0.15"></rect><circle r="5.526315789473684" cx="800" cy="0" fill="hsla(90, 41%, 76%, 1.00)" stroke="none"></circle><rect width="200" height="160" x="0" y="160" opacity="0.15"></rect><circle r="5.526315789473684" cx="0" cy="160" fill="hsla(90, 41%, 76%, 1.00)" stroke="none"></circle><rect width="200" height="160" x="200" y="160" opacity="0.15"></rect><circle r="5.526315789473684" cx="200" cy="160" fill="hsla(90, 41%, 76%, 1.00)" stroke="none"></circle><rect width="200" height="160" x="400" y="160" opacity="0.15"></rect><circle r="5.526315789473684" cx="400" cy="160" fill="hsla(90, 41%, 76%, 1.00)" stroke="none"></circle><rect width="200" height="160" x="600" y="160" opacity="0.15"></rect><circle r="5.526315789473684" cx="600" cy="160" fill="hsla(90, 41%, 76%, 1.00)" stroke="none"></circle><rect width="200" height="160" x="800" y="160" opacity="0.15"></rect><circle r="5.526315789473684" cx="800" cy="160" fill="hsla(90, 41%, 76%, 1.00)" stroke="none"></circle><rect width="200" height="160" x="0" y="320" opacity="0.15"></rect><circle r="5.526315789473684" cx="0" cy="320" fill="hsla(90, 41%, 76%, 1.00)" stroke="none"></circle><rect width="200" height="160" x="200" y="320" opacity="0.15"></rect><circle r="5.526315789473684" cx="200" cy="320" fill="hsla(90, 41%, 76%, 1.00)" stroke="none"></circle><rect width="200" height="160" x="400" y="320" opacity="0.15"></rect><circle r="5.526315789473684" cx="400" cy="320" fill="hsla(90, 41%, 76%, 1.00)" stroke="none"></circle><rect width="200" height="160" x="600" y="320" opacity="0.15"></rect><circle r="5.526315789473684" cx="600" cy="320" fill="hsla(90, 41%, 76%, 1.00)" stroke="none"></circle><rect width="200" height="160" x="800" y="320" opacity="0.15"></rect><circle r="5.526315789473684" cx="800" cy="320" fill="hsla(90, 41%, 76%, 1.00)" stroke="none"></circle><rect width="200" height="160" x="0" y="480" opacity="0.15"></rect><circle r="5.526315789473684" cx="0" cy="480" fill="hsla(90, 41%, 76%, 1.00)" stroke="none"></circle><rect width="200" height="160" x="200" y="480" opacity="0.15"></rect><circle r="5.526315789473684" cx="200" cy="480" fill="hsla(90, 41%, 76%, 1.00)" stroke="none"></circle><rect width="200" height="160" x="400" y="480" opacity="0.15"></rect><circle r="5.526315789473684" cx="400" cy="480" fill="hsla(90, 41%, 76%, 1.00)" stroke="none"></circle><rect width="200" height="160" x="600" y="480" opacity="0.15"></rect><circle r="5.526315789473684" cx="600" cy="480" fill="hsla(90, 41%, 76%, 1.00)" stroke="none"></circle><rect width="200" height="160" x="800" y="480" opacity="0.15"></rect><circle r="5.526315789473684" cx="800" cy="480" fill="hsla(90, 41%, 76%, 1.00)" stroke="none"></circle><rect width="200" height="160" x="0" y="640" opacity="0.15"></rect><circle r="5.526315789473684" cx="0" cy="640" fill="hsla(90, 41%, 76%, 1.00)" stroke="none"></circle><rect width="200" height="160" x="200" y="640" opacity="0.15"></rect><circle r="5.526315789473684" cx="200" cy="640" fill="hsla(90, 41%, 76%, 1.00)" stroke="none"></circle><rect width="200" height="160" x="400" y="640" opacity="0.15"></rect><circle r="5.526315789473684" cx="400" cy="640" fill="hsla(90, 41%, 76%, 1.00)" stroke="none"></circle><rect width="200" height="160" x="600" y="640" opacity="0.15"></rect><circle r="5.526315789473684" cx="600" cy="640" fill="hsla(90, 41%, 76%, 1.00)" stroke="none"></circle><rect width="200" height="160" x="800" y="640" opacity="0.15"></rect><circle r="5.526315789473684" cx="800" cy="640" fill="hsla(90, 41%, 76%, 1.00)" stroke="none"></circle><rect width="200" height="160" x="0" y="800" opacity="0.15"></rect><circle r="5.526315789473684" cx="0" cy="800" fill="hsla(90, 41%, 76%, 1.00)" stroke="none"></circle><rect width="200" height="160" x="200" y="800" opacity="0.15"></rect><circle r="5.526315789473684" cx="200" cy="800" fill="hsla(90, 41%, 76%, 1.00)" stroke="none"></circle><rect width="200" height="160" x="400" y="800" opacity="0.15"></rect><circle r="5.526315789473684" cx="400" cy="800" fill="hsla(90, 41%, 76%, 1.00)" stroke="none"></circle><rect width="200" height="160" x="600" y="800" opacity="0.15"></rect><circle r="5.526315789473684" cx="600" cy="800" fill="hsla(90, 41%, 76%, 1.00)" stroke="none"></circle><rect width="200" height="160" x="800" y="800" opacity="0.15"></rect><circle r="5.526315789473684" cx="800" cy="800" fill="hsla(90, 41%, 76%, 1.00)" stroke="none"></circle></g></svg>